<svg id="visual" viewBox="0 0 960 540" width="960" height="540" xmlns="http://www.w3.org/2000/svg" xmlns:xlink="http://www.w3.org/1999/xlink" version="1.1"><path d="M331 0L322.3 3.8C313.7 7.7 296.3 15.3 305.5 23.2C314.7 31 350.3 39 371.3 46.8C392.3 54.7 398.7 62.3 385 70.2C371.3 78 337.7 86 321.2 93.8C304.7 101.7 305.3 109.3 336.5 117.2C367.7 125 429.3 133 413.8 140.8C398.3 148.7 305.7 156.3 289.8 164.2C274 172 335 180 383.5 187.8C432 195.7 468 203.3 491.3 211.2C514.7 219 525.3 227 467.5 234.8C409.7 242.7 283.3 250.3 253.2 258.2C223 266 289 274 339 281.8C389 289.7 423 297.3 421.3 305.2C419.7 313 382.3 321 342.5 328.8C302.7 336.7 260.3 344.3 270 352.2C279.7 360 341.3 368 361 375.8C380.7 383.7 358.3 391.3 358.2 399.2C358 407 380 415 381.7 422.8C383.3 430.7 364.7 438.3 324 446.2C283.3 454 220.7 462 189 469.8C157.3 477.7 156.7 485.3 171.8 493.2C187 501 218 509 272.3 516.8C326.7 524.7 404.3 532.3 443.2 536.2L482 540L0 540L0 536.2C0 532.3 0 524.7 0 516.8C0 509 0 501 0 493.2C0 485.3 0 477.7 0 469.8C0 462 0 454 0 446.2C0 438.3 0 430.7 0 422.8C0 415 0 407 0 399.2C0 391.3 0 383.7 0 375.8C0 368 0 360 0 352.2C0 344.3 0 336.7 0 328.8C0 321 0 313 0 305.2C0 297.3 0 289.7 0 281.8C0 274 0 266 0 258.2C0 250.3 0 242.7 0 234.8C0 227 0 219 0 211.2C0 203.3 0 195.7 0 187.8C0 180 0 172 0 164.2C0 156.3 0 148.7 0 140.8C0 133 0 125 0 117.2C0 109.3 0 101.7 0 93.8C0 86 0 78 0 70.2C0 62.3 0 54.7 0 46.8C0 39 0 31 0 23.2C0 15.3 0 7.7 0 3.8L0 0Z" fill="#b00093" stroke-linecap="round" stroke-linejoin="miter"></path></svg>