<svg id="visual" viewBox="0 0 960 540" width="960" height="540" xmlns="http://www.w3.org/2000/svg" xmlns:xlink="http://www.w3.org/1999/xlink" version="1.1"><rect x="0" y="0" width="960" height="540" fill="#000000"></rect><path d="M0 264L20 280.2C40 296.3 80 328.7 120 354.7C160 380.7 200 400.3 240 397.2C280 394 320 368 360 365.3C400 362.7 440 383.3 480 375.5C520 367.7 560 331.3 600 327.5C640 323.7 680 352.3 720 352.7C760 353 800 325 840 315.7C880 306.3 920 315.7 940 320.3L960 325L960 541L940 541C920 541 880 541 840 541C800 541 760 541 720 541C680 541 640 541 600 541C560 541 520 541 480 541C440 541 400 541 360 541C320 541 280 541 240 541C200 541 160 541 120 541C80 541 40 541 20 541L0 541Z" fill="#b00093" stroke-linecap="round" stroke-linejoin="miter"></path></svg>